<?xml version="1.0" encoding="utf-8"?>
<!-- Generator: Adobe Illustrator 16.0.0, SVG Export Plug-In . SVG Version: 6.00 Build 0)  -->
<!DOCTYPE svg PUBLIC "-//W3C//DTD SVG 1.1//EN" "http://www.w3.org/Graphics/SVG/1.1/DTD/svg11.dtd">
<svg version="1.1" id="Layer_1" xmlns="http://www.w3.org/2000/svg" xmlns:xlink="http://www.w3.org/1999/xlink" x="0px" y="0px"
	 width="290.783px" height="77.227px" viewBox="0 0 290.783 77.227" enable-background="new 0 0 290.783 77.227"
	 xml:space="preserve">
<path fill="#A50034" d="M38.605,77.227c21.33,0,38.621-17.287,38.621-38.62C77.227,17.289,59.936,0,38.605,0
	C17.289,0,0,17.289,0,38.607C0,59.94,17.289,77.227,38.605,77.227"/>
<polygon fill="#FFFFFF" points="37.072,21.668 37.072,55.518 47.848,55.518 47.848,52.493 40.16,52.493 40.16,21.668 "/>
<path fill="#FFFFFF" d="M26.281,30.906c2.559,0,4.631-2.074,4.631-4.631c0-2.551-2.072-4.623-4.631-4.623
	c-2.553,0-4.623,2.072-4.623,4.623C21.658,28.832,23.729,30.906,26.281,30.906"/>
<path fill="#FFFFFF" d="M40.16,6.305c-0.404-0.021-1.168-0.029-1.555-0.029c-17.813,0-32.316,14.512-32.316,32.328
	c0,8.629,3.367,16.754,9.467,22.856c6.109,6.111,14.229,9.467,22.85,9.467c8.645,0,16.758-3.355,22.871-9.467
	c6.09-6.102,9.461-14.227,9.461-22.856v-1.475l-1.297,0.004H47.854v3.01h20.004v0.443c-1.033,15.236-13.744,27.322-29.252,27.322
	c-7.814,0-15.174-3.055-20.707-8.588c-5.541-5.529-8.588-12.895-8.588-20.717c0-7.824,3.047-15.182,8.588-20.725
	c5.533-5.533,12.893-8.582,20.707-8.582c0.352,0,1.184,0.008,1.555,0.027V6.305z"/>
<polygon fill="#6B6B6B" points="106.422,13.15 94.801,13.15 94.801,63.45 130.486,63.45 130.486,53.653 106.422,53.653 "/>
<path fill="#6B6B6B" d="M156.051,44.276h9.465v8.795c-1.744,0.668-5.148,1.33-8.385,1.33c-10.457,0-13.943-5.313-13.943-16.104
	c0-10.285,3.32-16.348,13.777-16.348c5.813,0,9.131,1.824,11.869,5.311l7.225-6.637c-4.4-6.309-12.121-8.219-19.342-8.219
	c-16.27,0-24.82,8.877-24.82,25.811c0,16.85,7.721,25.979,24.738,25.979c7.801,0,15.438-1.994,19.588-4.896V34.898h-20.172V44.276z"
	/>
<path fill="#6B6B6B" d="M198.779,48.497h-12.281v6.629l19.617,0.002c5.434,0,11.791-1.25,15.217-3.262v-6.74
	c-3.479,1.959-8.857,3.371-14.021,3.371v-6.033h-8.531V48.497z M218.848,22.25h-32.494v6.572h32.494V22.25z M207.582,34.529
	c0,2.504-1.357,4.293-4.619,4.293c-3.314,0-4.729-1.789-4.729-4.293c0-2.553,1.414-4.24,4.729-4.24
	C206.225,30.289,207.582,31.977,207.582,34.529 M210.406,13.01h-5.867c-3.533,0-7.826-0.596-9.893-1.416l-1.246,6.85
	c2.338,0.707,6.248,1.143,9.02,1.143h7.986V13.01z M237.908,27.955h-8.207V12.576h-8.697v50.702h7.611
	c0.705-2.988,1.086-7.445,1.086-11.467V35.238h8.207V27.955z M189.979,34.801c0,6.086,3.746,9.893,12.877,9.893
	c9.184,0,12.932-3.807,12.932-9.893c0-5.705-4.945-9.725-12.932-9.725C194.922,25.076,189.979,29.096,189.979,34.801
	 M260.676,33.277c0,2.178-1.41,3.914-4.619,3.914c-3.369,0-4.674-1.736-4.674-3.914c0-2.117,1.305-3.859,4.674-3.859
	C259.266,29.418,260.676,31.16,260.676,33.277 M290.783,23.932h-8.262V12.576h-8.643v30.487h8.643V30.998h8.262V23.932z
	 M282.521,45.563H248.83v6.684h25.049v11.305h7.666c0.705-2.83,0.977-6.631,0.977-9.133V45.563z M243.611,33.498
	c0,5.705,3.588,9.565,12.445,9.565c8.914,0,12.498-3.915,12.498-9.565c0-5.215-4.779-9.346-12.498-9.346
	C248.449,24.152,243.611,28.283,243.611,33.498 M271.656,21.703h-31.791v6.416h31.791V21.703z M263.775,12.686h-5.926
	c-3.533,0-7.662-0.6-9.998-1.469l-1.195,6.902c2.336,0.814,6.088,1.139,8.531,1.139h8.588V12.686z"/>
</svg>
