<svg width="107" height="32" viewBox="0 0 107 32" fill="none" xmlns="http://www.w3.org/2000/svg">
<path d="M53.7838 14.6465H43.8981V12.1687H53.7838V9.41214H43.8981V7.19965H53.7838V4.45654H40.3894V17.3897H53.7838V14.6465Z" fill="white"/>
<path d="M96.1172 9.51557L104.374 17.2547H107V4.45654H103.514V12.2002L95.2617 4.45654H92.6313V17.2547H96.1172V9.51557Z" fill="white"/>
<path d="M88.8801 4.45654H74.5159V17.2547H88.8801V4.45654ZM85.3989 14.5476H77.9971V7.17267H85.3989V14.5476Z" fill="white"/>
<path d="M25.6682 9.56953L33.9711 17.3897H36.6152V4.45654H33.1157V12.2812L24.8128 4.45654H22.1641V17.3897H25.6682V9.56953Z" fill="white"/>
<path d="M64.1544 13.302L67.7271 17.2547H72.1279L66.3593 10.8646L72.1371 4.45654H67.7317L64.1544 8.42281L60.5816 4.45654H56.1763L61.954 10.8646L56.1854 17.2547H60.5908L64.1544 13.302Z" fill="white"/>
<path d="M0 17.313V28.0741L14.5335 20.4788L0 17.313Z" fill="#0AA0D2"/>
<path d="M14.5335 0L0 7.59528V17.3131L14.5335 20.4789V0Z" fill="#0054A3"/>
<path d="M14.5335 20.479L0 28.0743L18.0285 32.0001L32.5575 24.4048L14.5335 20.479Z" fill="#B4E114"/>
</svg>
